<svg width="20" height="19" viewBox="0 0 20 19" fill="none" xmlns="http://www.w3.org/2000/svg">
<path d="M17.6602 1.49017C15.0202 -0.309834 11.7602 0.530166 10.0002 2.59017C8.24021 0.530166 4.98021 -0.319834 2.34021 1.49017C0.940213 2.45017 0.0602132 4.07017 0.000213224 5.78017C-0.139787 9.66017 3.30021 12.7702 8.55021 17.5402L8.65021 17.6302C9.41021 18.3202 10.5802 18.3202 11.3402 17.6202L11.4502 17.5202C16.7002 12.7602 20.1302 9.65017 20.0002 5.77017C19.9402 4.07017 19.0602 2.45017 17.6602 1.49017ZM10.1002 16.0502L10.0002 16.1502L9.90021 16.0502C5.14021 11.7402 2.00021 8.89017 2.00021 6.00017C2.00021 4.00017 3.50021 2.50017 5.50021 2.50017C7.04021 2.50017 8.54021 3.49017 9.07021 4.86017H10.9402C11.4602 3.49017 12.9602 2.50017 14.5002 2.50017C16.5002 2.50017 18.0002 4.00017 18.0002 6.00017C18.0002 8.89017 14.8602 11.7402 10.1002 16.0502Z" fill="#F3F3F3"/>
</svg>
