<svg width="673" height="673" viewBox="0 0 673 673" fill="none" xmlns="http://www.w3.org/2000/svg">
<path d="M336.5 386C363.838 386 386 363.838 386 336.5C386 309.162 363.838 287 336.5 287C309.162 287 287 309.162 287 336.5C287 363.838 309.162 386 336.5 386Z" stroke="#8DFD1B"/>
<path d="M337 416C381.183 416 417 380.183 417 336C417 291.817 381.183 256 337 256C292.817 256 257 291.817 257 336C257 380.183 292.817 416 337 416Z" stroke="#8DFD1B"/>
<path d="M336.105 465.21C407.408 465.21 465.21 407.408 465.21 336.105C465.21 264.802 407.408 207 336.105 207C264.802 207 207 264.802 207 336.105C207 407.408 264.802 465.21 336.105 465.21Z" stroke="#8DFD1B" stroke-opacity="0.75"/>
<path d="M336.164 544.328C451.13 544.328 544.328 451.13 544.328 336.164C544.328 221.198 451.13 128 336.164 128C221.198 128 128 221.198 128 336.164C128 451.13 221.198 544.328 336.164 544.328Z" stroke="#8DFD1B" stroke-opacity="0.5"/>
<path d="M336.451 671.902C521.715 671.902 671.902 521.715 671.902 336.451C671.902 151.187 521.715 1 336.451 1C151.187 1 1 151.187 1 336.451C1 521.715 151.187 671.902 336.451 671.902Z" stroke="#8DFD1B" stroke-opacity="0.25"/>
</svg>
