<svg width="45" height="45" viewBox="0 0 45 45" fill="none" xmlns="http://www.w3.org/2000/svg">
<g filter="url(#filter0_d_19_8874)">
<mask id="path-1-inside-1_19_8874" fill="white">
<path d="M13.0339 2.89247C10.0327 4.71291 7.61988 7.35987 6.08438 10.5164C4.54887 13.6728 3.95579 17.205 4.37617 20.6899C4.79654 24.1748 6.21254 27.4647 8.4546 30.1655C10.6966 32.8663 13.6697 34.8636 17.0177 35.9181C20.3657 36.9727 23.9467 37.0398 27.3319 36.1114C30.717 35.1831 33.7629 33.2986 36.1045 30.6837C38.4462 28.0688 39.9845 24.8343 40.5352 21.3676C41.0858 17.901 40.6255 14.349 39.2094 11.1372L30.819 14.8367C31.5239 16.4354 31.753 18.2035 31.4789 19.9291C31.2048 21.6547 30.4391 23.2648 29.2735 24.5664C28.1078 25.868 26.5917 26.8061 24.9067 27.2682C23.2216 27.7303 21.4391 27.6969 19.7726 27.1719C18.106 26.647 16.6261 25.6528 15.5101 24.3084C14.3941 22.9641 13.6892 21.3265 13.48 19.5918C13.2707 17.8571 13.5659 16.0989 14.3303 14.5276C15.0946 12.9564 16.2956 11.6389 17.7895 10.7327L13.0339 2.89247Z"/>
</mask>
<path d="M13.0339 2.89247C10.0327 4.71291 7.61988 7.35987 6.08438 10.5164C4.54887 13.6728 3.95579 17.205 4.37617 20.6899C4.79654 24.1748 6.21254 27.4647 8.4546 30.1655C10.6966 32.8663 13.6697 34.8636 17.0177 35.9181C20.3657 36.9727 23.9467 37.0398 27.3319 36.1114C30.717 35.1831 33.7629 33.2986 36.1045 30.6837C38.4462 28.0688 39.9845 24.8343 40.5352 21.3676C41.0858 17.901 40.6255 14.349 39.2094 11.1372L30.819 14.8367C31.5239 16.4354 31.753 18.2035 31.4789 19.9291C31.2048 21.6547 30.4391 23.2648 29.2735 24.5664C28.1078 25.868 26.5917 26.8061 24.9067 27.2682C23.2216 27.7303 21.4391 27.6969 19.7726 27.1719C18.106 26.647 16.6261 25.6528 15.5101 24.3084C14.3941 22.9641 13.6892 21.3265 13.48 19.5918C13.2707 17.8571 13.5659 16.0989 14.3303 14.5276C15.0946 12.9564 16.2956 11.6389 17.7895 10.7327L13.0339 2.89247Z" fill="#232323"/>
<path d="M13.0339 2.89247C10.0327 4.71291 7.61988 7.35987 6.08438 10.5164C4.54887 13.6728 3.95579 17.205 4.37617 20.6899C4.79654 24.1748 6.21254 27.4647 8.4546 30.1655C10.6966 32.8663 13.6697 34.8636 17.0177 35.9181C20.3657 36.9727 23.9467 37.0398 27.3319 36.1114C30.717 35.1831 33.7629 33.2986 36.1045 30.6837C38.4462 28.0688 39.9845 24.8343 40.5352 21.3676C41.0858 17.901 40.6255 14.349 39.2094 11.1372L30.819 14.8367C31.5239 16.4354 31.753 18.2035 31.4789 19.9291C31.2048 21.6547 30.4391 23.2648 29.2735 24.5664C28.1078 25.868 26.5917 26.8061 24.9067 27.2682C23.2216 27.7303 21.4391 27.6969 19.7726 27.1719C18.106 26.647 16.6261 25.6528 15.5101 24.3084C14.3941 22.9641 13.6892 21.3265 13.48 19.5918C13.2707 17.8571 13.5659 16.0989 14.3303 14.5276C15.0946 12.9564 16.2956 11.6389 17.7895 10.7327L13.0339 2.89247Z" fill="#232323"/>
<path d="M13.0339 2.89247C10.0327 4.71291 7.61988 7.35987 6.08438 10.5164C4.54887 13.6728 3.95579 17.205 4.37617 20.6899C4.79654 24.1748 6.21254 27.4647 8.4546 30.1655C10.6966 32.8663 13.6697 34.8636 17.0177 35.9181C20.3657 36.9727 23.9467 37.0398 27.3319 36.1114C30.717 35.1831 33.7629 33.2986 36.1045 30.6837C38.4462 28.0688 39.9845 24.8343 40.5352 21.3676C41.0858 17.901 40.6255 14.349 39.2094 11.1372L30.819 14.8367C31.5239 16.4354 31.753 18.2035 31.4789 19.9291C31.2048 21.6547 30.4391 23.2648 29.2735 24.5664C28.1078 25.868 26.5917 26.8061 24.9067 27.2682C23.2216 27.7303 21.4391 27.6969 19.7726 27.1719C18.106 26.647 16.6261 25.6528 15.5101 24.3084C14.3941 22.9641 13.6892 21.3265 13.48 19.5918C13.2707 17.8571 13.5659 16.0989 14.3303 14.5276C15.0946 12.9564 16.2956 11.6389 17.7895 10.7327L13.0339 2.89247Z" stroke="#8DD83D" mask="url(#path-1-inside-1_19_8874)"/>
</g>
<path d="M13.4329 2.64713C15.6157 1.3988 18.0328 0.614801 20.5327 0.344262C23.0327 0.0737201 25.5615 0.322477 27.9608 1.07493C30.3601 1.82739 32.5781 3.06733 34.4758 4.71704C36.3736 6.36674 37.91 8.39065 38.989 10.6619L30.7098 14.595C30.1725 13.464 29.4073 12.4561 28.4623 11.6346C27.5173 10.8131 26.4127 10.1956 25.2179 9.82092C24.0231 9.44621 22.7638 9.32234 21.5189 9.45706C20.274 9.59178 19.0703 9.9822 17.9833 10.6038L13.4329 2.64713Z" fill="#232323"/>
<path d="M13.4329 2.64713C15.6157 1.3988 18.0328 0.614801 20.5327 0.344262C23.0327 0.0737201 25.5615 0.322477 27.9608 1.07493C30.3601 1.82739 32.5781 3.06733 34.4758 4.71704C36.3736 6.36674 37.91 8.39065 38.989 10.6619L30.7098 14.595C30.1725 13.464 29.4073 12.4561 28.4623 11.6346C27.5173 10.8131 26.4127 10.1956 25.2179 9.82092C24.0231 9.44621 22.7638 9.32234 21.5189 9.45706C20.274 9.59178 19.0703 9.9822 17.9833 10.6038L13.4329 2.64713Z" fill="#8DD83D"/>
<defs>
<filter id="filter0_d_19_8874" x="0.244141" y="2.89258" width="44.5176" height="41.8691" filterUnits="userSpaceOnUse" color-interpolation-filters="sRGB">
<feFlood flood-opacity="0" result="BackgroundImageFix"/>
<feColorMatrix in="SourceAlpha" type="matrix" values="0 0 0 0 0 0 0 0 0 0 0 0 0 0 0 0 0 0 127 0" result="hardAlpha"/>
<feOffset dy="4"/>
<feGaussianBlur stdDeviation="2"/>
<feComposite in2="hardAlpha" operator="out"/>
<feColorMatrix type="matrix" values="0 0 0 0 0 0 0 0 0 0 0 0 0 0 0 0 0 0 0.25 0"/>
<feBlend mode="normal" in2="BackgroundImageFix" result="effect1_dropShadow_19_8874"/>
<feBlend mode="normal" in="SourceGraphic" in2="effect1_dropShadow_19_8874" result="shape"/>
</filter>
</defs>
</svg>
