<svg width="16" height="18" viewBox="0 0 16 18" fill="none" xmlns="http://www.w3.org/2000/svg">
<path d="M13.8333 2.33341H13V1.50008C13 1.04175 12.625 0.666748 12.1667 0.666748C11.7083 0.666748 11.3333 1.04175 11.3333 1.50008V2.33341H4.66667V1.50008C4.66667 1.04175 4.29167 0.666748 3.83333 0.666748C3.375 0.666748 3 1.04175 3 1.50008V2.33341H2.16667C1.24167 2.33341 0.508333 3.08341 0.508333 4.00008L0.5 15.6667C0.5 16.5834 1.24167 17.3334 2.16667 17.3334H13.8333C14.75 17.3334 15.5 16.5834 15.5 15.6667V4.00008C15.5 3.08341 14.75 2.33341 13.8333 2.33341ZM13.8333 14.8334C13.8333 15.2917 13.4583 15.6667 13 15.6667H3C2.54167 15.6667 2.16667 15.2917 2.16667 14.8334V6.50008H13.8333V14.8334ZM3.83333 8.16675H5.5V9.83341H3.83333V8.16675ZM7.16667 8.16675H8.83333V9.83341H7.16667V8.16675ZM10.5 8.16675H12.1667V9.83341H10.5V8.16675Z" fill="#76808C" fill-opacity="0.5"/>
</svg>
