<svg width="20" height="20" viewBox="0 0 20 20" fill="none" xmlns="http://www.w3.org/2000/svg">
<path d="M0.700001 11.9202C0.980989 12.2576 1.3326 12.5291 1.73001 12.7157C2.12743 12.9023 2.56095 12.9994 3 13.0002H7.56L7 14.4302C6.76707 15.0563 6.6895 15.7296 6.77394 16.3923C6.85838 17.055 7.10231 17.6873 7.48481 18.235C7.86732 18.7827 8.37697 19.2294 8.97006 19.5369C9.56315 19.8443 10.222 20.0033 10.89 20.0002C11.0824 19.9998 11.2705 19.9439 11.4319 19.8393C11.5933 19.7346 11.7211 19.5856 11.8 19.4102L14.65 13.0002H17C17.7956 13.0002 18.5587 12.6841 19.1213 12.1215C19.6839 11.5589 20 10.7958 20 10.0002L20 3.0002C20 2.20455 19.6839 1.44149 19.1213 0.87888C18.5587 0.31627 17.7956 0.000200272 17 0.000200272L4.27 0.000200272C3.56819 0.000434176 2.88867 0.246709 2.34968 0.696177C1.81068 1.14564 1.44633 1.76985 1.32 2.4602L0.0499992 9.4602C-0.028551 9.89282 -0.0110442 10.3374 0.10128 10.7625C0.213605 11.1876 0.418002 11.5828 0.700001 11.9202ZM15 2.0002H17C17.2652 2.0002 17.5196 2.10556 17.7071 2.29309C17.8946 2.48063 18 2.73498 18 3.0002L18 10.0002C18 10.2654 17.8946 10.5198 17.7071 10.7073C17.5196 10.8948 17.2652 11.0002 17 11.0002H15L15 2.0002ZM2 9.8202L3.27 2.8202C3.3126 2.58724 3.43649 2.37696 3.61961 2.2268C3.80274 2.07664 4.03321 1.99634 4.27 2.0002L13 2.0002L13 11.7902L10.28 17.9102C10 17.8286 9.73999 17.6898 9.51634 17.5026C9.29269 17.3154 9.11028 17.0839 8.9806 16.8227C8.85093 16.5615 8.77682 16.2762 8.76294 15.9849C8.74907 15.6936 8.79574 15.4026 8.9 15.1302L9.43 13.7002C9.54293 13.3979 9.58106 13.0729 9.54113 12.7527C9.50119 12.4325 9.38438 12.1267 9.20067 11.8615C9.01695 11.5962 8.77179 11.3793 8.48609 11.2294C8.2004 11.0794 7.88266 11.0008 7.56 11.0002H3C2.85309 11.0004 2.70793 10.9683 2.57485 10.9061C2.44176 10.8439 2.32402 10.7531 2.23 10.6402C2.13367 10.5289 2.0631 10.3977 2.02334 10.2559C1.98359 10.1142 1.97561 9.96538 2 9.8202Z" fill="#A6A6A6"/>
</svg>
