<svg width="18" height="18" viewBox="0 0 18 18" fill="none" xmlns="http://www.w3.org/2000/svg">
<path d="M12.5327 5.46675C11.5577 4.49175 10.2827 4.00008 8.99935 4.00008V9.00008L5.46602 12.5334C7.41602 14.4834 10.5827 14.4834 12.541 12.5334C14.491 10.5834 14.491 7.41675 12.5327 5.46675ZM8.99935 0.666748C4.39935 0.666748 0.666016 4.40008 0.666016 9.00008C0.666016 13.6001 4.39935 17.3334 8.99935 17.3334C13.5993 17.3334 17.3327 13.6001 17.3327 9.00008C17.3327 4.40008 13.5993 0.666748 8.99935 0.666748ZM8.99935 15.6667C5.31602 15.6667 2.33268 12.6834 2.33268 9.00008C2.33268 5.31675 5.31602 2.33341 8.99935 2.33341C12.6827 2.33341 15.666 5.31675 15.666 9.00008C15.666 12.6834 12.6827 15.6667 8.99935 15.6667Z" fill="#76808C" fill-opacity="0.5"/>
</svg>
